<?xml version="1.0" encoding="UTF-8" standalone="no"?>
<svg
   xmlns:dc="http://purl.org/dc/elements/1.1/"
   xmlns:cc="http://creativecommons.org/ns#"
   xmlns:rdf="http://www.w3.org/1999/02/22-rdf-syntax-ns#"
   xmlns:svg="http://www.w3.org/2000/svg"
   xmlns="http://www.w3.org/2000/svg"
   xmlns:sodipodi="http://sodipodi.sourceforge.net/DTD/sodipodi-0.dtd"
   xmlns:inkscape="http://www.inkscape.org/namespaces/inkscape"
   viewBox="0 0 976.5 188.81"
   version="1.1"
   id="svg104"
   sodipodi:docname="c1_logo_tagline.svg"
   inkscape:version="1.0.2-2 (e86c870879, 2021-01-15)">
  <metadata
     id="metadata108">
    <rdf:RDF>
      <cc:Work
         rdf:about="">
        <dc:format>image/svg+xml</dc:format>
        <dc:type
           rdf:resource="http://purl.org/dc/dcmitype/StillImage" />
      </cc:Work>
    </rdf:RDF>
  </metadata>
  <sodipodi:namedview
     pagecolor="#ffffff"
     bordercolor="#666666"
     borderopacity="1"
     objecttolerance="10"
     gridtolerance="10"
     guidetolerance="10"
     inkscape:pageopacity="0"
     inkscape:pageshadow="2"
     inkscape:window-width="1920"
     inkscape:window-height="1001"
     id="namedview106"
     showgrid="false"
     inkscape:zoom="0.76190476"
     inkscape:cx="292.06907"
     inkscape:cy="49.261528"
     inkscape:window-x="-9"
     inkscape:window-y="1341"
     inkscape:window-maximized="1"
     inkscape:current-layer="svg104"
     inkscape:document-rotation="0" />
  <defs
     id="defs62">
    <style
       id="style60">.cls-1{fill:#789ec5;}</style>
  </defs>
  <title
     id="title64">c1_logo_tagline</title>
  <g
     id="Layer_2"
     data-name="Layer 2">
    <g
       id="Layer_1-2"
       data-name="Layer 1">
      <path
         class="cls-1"
         d="M84.08,53.12c0,14.85,8.56,24.67,21.15,24.67,12.84,0,21.14-9.32,21.14-23.92,0-7-1.26-11.58-4.53-15.86a19.41,19.41,0,0,0-16.61-8.3C92.89,29.2,84.08,39,84.08,53.12m54.38.25c0,19.89-13.09,33-32.73,33-20.64,0-33.23-13.09-33.23-33.74,0-19.38,13.09-32,33-32,20.39,0,33,12.59,33,32.73"
         id="path66" />
      <path
         class="cls-1"
         d="M167.91,36.25C169.17,26.94,177,20.64,187,20.64a16,16,0,0,1,5,.76V31.47a8.8,8.8,0,0,0-6-2,17.12,17.12,0,0,0-12.34,5c-4,4-5.79,9.82-5.79,17.62V76.28h13.34v8.56h-36V76.28h11.84V31H145.25V22.4h22.66Z"
         id="path68" />
      <path
         class="cls-1"
         d="M222,36.25c1.26-9.31,9.32-15.61,19.89-15.61a19,19,0,0,1,5.29.76V31.47a8.8,8.8,0,0,0-6-2,17.12,17.12,0,0,0-12.34,5c-4,4-5.79,9.82-5.79,17.62V76.28h13.34v8.56h-37V76.28h11.83V31H199.38V22.4H222Z"
         id="path70" />
      <path
         class="cls-1"
         d="M303.35,47.58C302.59,36,295.54,29,284,29c-11.33,0-19.13,6.8-20.64,18.63Zm11.33,17.87A21.39,21.39,0,0,1,310.9,75c-5.29,7.8-14.1,11.83-26.43,11.83-13.35,0-21.65-3.78-28-12.59-4-5.79-5.79-12.08-5.79-20.14,0-21.39,12.34-34.23,33-34.23,16.11,0,26.43,7.05,30,20.39,1.26,5,1.76,7.55,1.76,15.61H262.56c.51,13.34,9.07,21.9,22.41,21.9,10.07,0,17.37-4.53,19.13-12.34Z"
         id="path72" />
      <polygon
         class="cls-1"
         points="342.87 76.53 353.95 76.53 353.95 85.09 320.21 85.09 320.21 76.53 331.29 76.53 331.29 9.06 320.21 9.06 320.21 1.26 342.87 1.26 342.87 76.53"
         id="polygon74" />
      <path
         class="cls-1"
         d="M395,54.88c-9.57,0-14.6,1-17.87,3.27A10.58,10.58,0,0,0,372.32,67c0,6.55,5,10.83,13.09,10.83,7,0,12.84-2.52,16.12-7.05,2.51-3.27,3.52-6.8,4.53-15.36a76.8,76.8,0,0,0-11.08-.5M362.25,40.53c1.51-13.34,10.33-19.64,27.7-19.64,10.07,0,17.11,2.27,21.65,6.55,4,4,5,8.31,5,17.62V76.53h11.83v8.56h-21.9V71.49C403,81.82,396,86.1,383.4,86.1c-14.6,0-22.91-7-22.91-19.14,0-8.3,4-14.09,11.33-17.37,4.53-2,11.58-3,22.41-3,1.51,0,11.58.25,11.58.25V44.31c.25-6.8-.76-9.32-3.78-11.84-2.52-2.26-6.55-3.27-11.83-3.27C380.13,29.2,374.84,33,374.09,40Z"
         id="path76" />
      <path
         class="cls-1"
         d="M449.61,67.47c0,4.53.25,6.29,1.51,7.8a7.08,7.08,0,0,0,5.28,2.52,5.73,5.73,0,0,0,6.05-4.28c.5-1.51.75-3.53,1-7.81H472c0,7.56-.5,10.58-2.51,13.85-3,4.53-7.81,6.8-14.86,6.8a17.13,17.13,0,0,1-11.07-3.53c-3.78-3.27-5-7-5-15.35V31H425.94V22.4h12.59V4l11.08-4V22.4h21.14V31H449.61Z"
         id="path78" />
      <polygon
         class="cls-1"
         points="502.22 76.53 512.54 76.53 512.54 85.09 480.32 85.09 480.32 76.53 491.4 76.53 491.4 30.96 480.32 30.96 480.32 22.41 502.22 22.41 502.22 76.53"
         id="polygon80" />
      <path
         class="cls-1"
         d="M531.68,53.12c0,14.85,8.55,24.67,21.14,24.67,12.84,0,21.15-9.32,21.15-23.92,0-7-1.26-11.58-4.53-15.86a19.42,19.42,0,0,0-16.62-8.3c-12.59-.51-21.14,9.31-21.14,23.41m54.12.25c0,19.89-13.09,33-32.73,33-20.64,0-33.23-13.09-33.23-33.74,0-19.38,13.09-32,33-32,20.39,0,33,12.59,33,32.73"
         id="path82" />
      <path
         class="cls-1"
         d="M615.25,34.49c2.52-8.81,10.32-13.85,21.65-13.85,14.35,0,22.41,7.05,22.41,19.64V76.53h11.07v8.56h-33V76.53h10.32V44.31a14.84,14.84,0,0,0-14.6-14.86c-10.83,0-17.63,7.56-17.63,19.64V76.53h11.08v8.56H592.85V76.53h11.83V31H592.85V22.4H615.5V34.49Z"
         id="path84" />
      <path
         class="cls-1"
         d="M768.31,52.61c0,14.86,8.56,24.67,21.15,24.67,12.84,0,21.14-9.31,21.14-23.91,0-7-1.26-11.58-4.53-15.86a19.42,19.42,0,0,0-16.61-8.31c-12.34-.5-21.15,9.32-21.15,23.41m54.38.26c0,19.88-13.09,33-32.73,33-20.64,0-33.23-13.09-33.23-33.73,0-19.38,13.09-32,33-32,20.39,0,33,12.59,33,32.73"
         id="path86" />
      <path
         class="cls-1"
         d="M852.14,33.23c2.27-8.81,10.32-13.85,21.65-13.85,14.35,0,22.4,7.05,22.4,19.64V75.27h11.08v8.56h-33V75.27h10.32V43.05A14.83,14.83,0,0,0,870,28.19c-10.82,0-17.62,7.56-17.62,19.64V75.27h11.08v8.56H829.74V75.27h11.83V29.71H829.74V21.15h22.65V33.23Z"
         id="path88" />
      <path
         class="cls-1"
         d="M964.67,47.08c-.76-11.58-7.81-18.63-19.39-18.63-11.32,0-19.13,6.79-20.64,18.63ZM975.74,65.2A21.26,21.26,0,0,1,972,74.77c-5.29,7.8-14.1,11.83-26.43,11.83-13.35,0-21.65-3.78-27.95-12.59-4-5.79-5.79-12.08-5.79-20.14,0-21.4,12.34-34.23,33-34.23,16.11,0,26.43,7,30,20.39,1.26,5,1.76,7.55,1.76,15.6H923.63C924.14,69,932.7,77.54,946,77.54c10.07,0,17.37-4.54,19.13-12.34Z"
         id="path90" />
      <path
         class="cls-1"
         d="M52.11,65.45C48.84,73.26,42,77.79,33,77.79c-12.84,0-21.15-9.82-21.15-24.67,0-14.1,8.56-23.67,21.4-23.67a19.4,19.4,0,0,1,16.61,8.31c.51.76,1,1.76,1.51,2.52H63.94C59.41,27.94,48.59,20.64,33,20.64c-19.89,0-33,12.59-33,32.23C0,73.51,12.84,86.6,33.23,86.6c15.36,0,26.94-8.06,31-21.15Z"
         id="path92" />
      <path
         class="cls-1"
         d="M741.37,30.21a7.8,7.8,0,1,1-7.8-7.81,7.84,7.84,0,0,1,7.8,7.81"
         id="path94" />
      <path
         class="cls-1"
         d="M722.49,53.12a7.8,7.8,0,1,1-7.8-7.81,7.54,7.54,0,0,1,7.8,7.81"
         id="path96" />
      <path
         class="cls-1"
         d="M702.86,76.53a7.81,7.81,0,1,1-7.81-7.8,7.84,7.84,0,0,1,7.81,7.8"
         id="path98" />
      <path
         class="cls-1"
         d="M27.69,169.17q0,8.69-3.77,13.59c-2.52,3.28-6.05,4.79-10.83,4.79H3.78v-37h9.31c4.78,0,8.31,1.51,10.83,4.78C26.43,158.85,27.69,163.38,27.69,169.17Zm-6.29,0a37,37,0,0,0-.51-5.79,8.49,8.49,0,0,0-1.76-4,8,8,0,0,0-2.52-2.52,8.88,8.88,0,0,0-3.52-.75h-3V182h3a6.86,6.86,0,0,0,3.27-.76,6,6,0,0,0,2.52-2.51,14.73,14.73,0,0,0,1.76-4A17.1,17.1,0,0,0,21.4,169.17Zm34.74,18.38-1.76-7.81H44.56l-1.76,7.81H36.5l9.32-37h8l9.07,37Zm-6.55-31h0L45.31,175h8.06Zm33.23-.5V187.8H76.53V156.08h-7v-5.29H89.62v5.29Zm33.48,31.47-1.76-7.81h-9.82L103,187.55H96.67l9.31-37H114l9.06,37Zm-6.54-31h0L105.48,175h8Zm56.39,1.26a5.89,5.89,0,0,0-5-2.52,4.15,4.15,0,0,0-1.76.26,5.27,5.27,0,0,0-1.51,1,5.69,5.69,0,0,0-1,1.51,7.42,7.42,0,0,0-.5,2.27,4.2,4.2,0,0,0,1.51,3.52,24.74,24.74,0,0,0,3.78,2.52c1,.5,1.76,1,2.77,1.51a7.09,7.09,0,0,1,2.51,2.27,6,6,0,0,1,1.77,3,10.48,10.48,0,0,1,.75,4,13.71,13.71,0,0,1-.75,4.78,10.53,10.53,0,0,1-2.27,3.52,9.65,9.65,0,0,1-3.27,2.27,11.48,11.48,0,0,1-4,.75,14.86,14.86,0,0,1-5.79-1.26,13.1,13.1,0,0,1-4.28-3l3.27-4.53a6.92,6.92,0,0,0,3,2.27,9,9,0,0,0,3.53.75,4.75,4.75,0,0,0,3.27-1.26,6.12,6.12,0,0,0,1.26-3.77,5.13,5.13,0,0,0-1.51-3.78,12.38,12.38,0,0,0-4-2.51,27.62,27.62,0,0,1-2.77-1.52,8.53,8.53,0,0,1-2.26-2,9.47,9.47,0,0,1-1.51-2.77,9.72,9.72,0,0,1-.51-4,10.53,10.53,0,0,1,1-5,12.56,12.56,0,0,1,2.52-3.53,8.84,8.84,0,0,1,3.27-2,10.18,10.18,0,0,1,3.78-.75,11.32,11.32,0,0,1,5,1,8.3,8.3,0,0,1,3.78,2.77Zm34.49,29.45a10.38,10.38,0,0,1-5.79,1.26,11.64,11.64,0,0,1-5.79-1.51,12.89,12.89,0,0,1-4.28-4A22.08,22.08,0,0,1,182,177a30.62,30.62,0,0,1,0-15.6,23.6,23.6,0,0,1,2.77-6.3,13,13,0,0,1,4.28-4,10.83,10.83,0,0,1,5.54-1.51,12.87,12.87,0,0,1,5.53,1.26,13,13,0,0,1,4,3.27l-3.27,4.54a6.6,6.6,0,0,0-5.54-3,5.06,5.06,0,0,0-3.27,1,6.92,6.92,0,0,0-2.27,3c-.5,1.26-1,2.77-1.51,4.28a37.86,37.86,0,0,0-.5,5.29,38,38,0,0,0,.5,5.29,10.86,10.86,0,0,0,1.51,4.28,9.7,9.7,0,0,0,2.27,3,5.85,5.85,0,0,0,6.54,0,19.43,19.43,0,0,0,2.27-2.27l3.52,4.28A16.57,16.57,0,0,1,200.64,187.29Zm16.11.26v-37H223v37Zm21.65,0v-37H255v5.54H244.44v9.82h9.82v5h-9.82v10.83h11.08v5.53H238.4Zm46.82,0-10.57-26.18h-.25v26.18h-5.54v-37h7.05l10.32,26.18h.25V150.54H292v37Zm39.78-.26a10.38,10.38,0,0,1-5.79,1.26,11.64,11.64,0,0,1-5.79-1.51,12.89,12.89,0,0,1-4.28-4,22.08,22.08,0,0,1-2.77-6.05,30.62,30.62,0,0,1,0-15.6,23.6,23.6,0,0,1,2.77-6.3,13,13,0,0,1,4.28-4,10.82,10.82,0,0,1,5.53-1.51,12.88,12.88,0,0,1,5.54,1.26,13,13,0,0,1,4,3.27L325,158.34a6.64,6.64,0,0,0-5.54-3,5.07,5.07,0,0,0-3.27,1,6.85,6.85,0,0,0-2.27,3c-.5,1.26-1,2.77-1.51,4.28a37.86,37.86,0,0,0-.5,5.29,37.72,37.72,0,0,0,.5,5.28,10.59,10.59,0,0,0,1.51,4.28,9.33,9.33,0,0,0,2.27,3,5.8,5.8,0,0,0,6.54,0,19.39,19.39,0,0,0,2.27-2.26l3.52,4.28A10,10,0,0,1,325,187.29Zm16.11.26v-37h16.61v5.54H347.15v9.82H357v5h-9.82v10.83h11.08v5.53H341.11ZM396,156.33V166.4h9.56v5.29H396v15.86h-6.3v-37h16.62v5.54H396Zm48.58,12.84a27.4,27.4,0,0,1-1,8.06,19.11,19.11,0,0,1-2.52,6,13,13,0,0,1-4.28,4,10.77,10.77,0,0,1-5.54,1.52,10.14,10.14,0,0,1-5.54-1.52,13,13,0,0,1-4.28-4,16.19,16.19,0,0,1-2.51-6,36.67,36.67,0,0,1-1-8.06,27.06,27.06,0,0,1,1-8.06,19.1,19.1,0,0,1,2.51-6,13.12,13.12,0,0,1,4.28-4,10.86,10.86,0,0,1,5.54-1.51,10.22,10.22,0,0,1,5.54,1.51,13.12,13.12,0,0,1,4.28,4,16.3,16.3,0,0,1,2.52,6A39.46,39.46,0,0,1,444.57,169.17Zm-6.54,0a33.31,33.31,0,0,0-.51-5.29,21.41,21.41,0,0,0-1.25-4.28,5.11,5.11,0,0,0-2.27-2.77,5.06,5.06,0,0,0-6,0,28.09,28.09,0,0,0-2.27,2.77,17.85,17.85,0,0,0-1.26,4.28,37.86,37.86,0,0,0-.5,5.29,34.56,34.56,0,0,0,.5,5.29,17.85,17.85,0,0,0,1.26,4.28A5.08,5.08,0,0,0,428,181.5a5,5,0,0,0,6,0,26.79,26.79,0,0,0,2.27-2.76,21.41,21.41,0,0,0,1.25-4.28A36.56,36.56,0,0,0,438,169.17Zm35.49,18.38-5.79-15.86h-3.52v15.86h-6v-37h10.57a22.34,22.34,0,0,1,4.28.5,7.22,7.22,0,0,1,3.27,2,15,15,0,0,1,2.27,3.27,13.71,13.71,0,0,1,.75,4.78,15.39,15.39,0,0,1-.5,3.78,6,6,0,0,1-1.51,2.77,11.68,11.68,0,0,1-1.76,1.76,7.63,7.63,0,0,1-2,1l6.55,17.12Zm-.5-25.93a9.06,9.06,0,0,0-.5-2.77,4.57,4.57,0,0,0-1.26-1.76,4,4,0,0,0-1.76-1,4.35,4.35,0,0,0-1.77-.25h-3.52v11.33h3.52a5.13,5.13,0,0,0,3.78-1.52A4.92,4.92,0,0,0,473,161.62Zm52.87,25.93-1.77-7.81h-9.81l-1.77,7.81h-6.29l9.31-37h8.06l9.06,37Zm-6.55-31h0L515.06,175h8.06Zm24.92,31v-37h6.3v31.22h10.07v5.79Zm28.2,0v-37h6.29v31.22h10.07v5.79Zm31.46-29v15.86h-3V158.6h-3.52v-2.52h10.07v2.52Zm21.91,15.86V160.11h0l-3.78,14.35h-2.52L616,160.11h0v14.35h-2.77V156.08h4.28L621,169.67h0l3.53-13.59h4.53v18.63h-3.27Z"
         id="path100" />
    </g>
  </g>
  <path
     style="fill:#000000;stroke-width:1.3125"
     d="M 92.844779,83.530678 C 81.928023,79.405221 75.206963,70.196255 73.456453,56.965457 71.684035,43.569081 77.446393,31.709494 88.735231,25.520001 c 6.087276,-3.337559 8.454246,-3.876196 16.921019,-3.850616 19.92673,0.0602 31.66406,11.816122 31.66406,31.714212 0,12.084313 -4.94581,21.817137 -13.8423,27.240153 -5.48297,3.342241 -7.96322,3.981865 -16.40625,4.230964 -5.47072,0.161406 -11.87286,-0.434409 -14.226981,-1.324036 z m 24.605361,-8.58327 c 9.21674,-6.830322 12.29794,-24.157088 6.22599,-35.011158 -3.30616,-5.91002 -12.11828,-11.174469 -18.62611,-11.127425 -6.590435,0.04764 -14.437561,4.427733 -17.894065,9.98807 -2.550819,4.103397 -3.154982,6.838506 -3.15088,14.264355 0.0064,11.600872 3.752124,18.966913 11.707296,23.022683 6.403169,3.264517 16.512269,2.735979 21.737769,-1.136525 z"
     id="path129" />
  <path
     style="fill:#000000;stroke-width:1.3125"
     d="m 146.34375,80.62375 c 0,-3.013889 0.48125,-3.28125 5.90625,-3.28125 h 5.90625 V 53.7175 30.0925 H 152.25 c -5.425,0 -5.90625,-0.267361 -5.90625,-3.28125 0,-3.226562 0.175,-3.28125 10.5,-3.28125 h 10.5 l 0.0514,6.890625 c 0.0513,6.876782 0.0549,6.882585 1.79478,2.888055 2.32914,-5.34729 9.0134,-10.793458 14.51357,-11.825297 5.63113,-1.056407 7.26528,-0.0475 7.26528,4.485526 0,3.274602 -0.38177,3.556338 -4.26563,3.147871 -5.23438,-0.550504 -12.33205,2.983955 -15.98482,7.960046 -2.37816,3.239716 -2.77511,5.99059 -3.17229,21.984375 L 167.09202,77.3425 h 6.68837 c 6.25925,0 6.68836,0.210517 6.68836,3.28125 V 83.905 h -17.0625 -17.0625 z"
     id="path131" />
  <path
     style="fill:#000000;stroke-width:1.3125"
     d="m 200.15625,80.62375 c 0,-3.013889 0.48125,-3.28125 5.90625,-3.28125 h 5.90625 v -23.625 -23.625 h -5.90625 c -5.425,0 -5.90625,-0.267361 -5.90625,-3.28125 0,-3.226562 0.175,-3.28125 10.5,-3.28125 h 10.5 l 0.0216,6.890625 0.0216,6.890625 2.93694,-5.25 c 3.28761,-5.876862 12.58106,-11.482784 18.01988,-10.869809 2.59806,0.292811 3.36291,1.20464 3.67343,4.379362 0.3733,3.816437 0.18365,3.987585 -3.9375,3.553455 -5.30158,-0.558479 -12.37365,2.945879 -16.04888,7.952568 -2.37816,3.239716 -2.77511,5.99059 -3.17229,21.984375 L 222.21702,77.3425 h 6.68837 c 6.25925,0 6.68836,0.210517 6.68836,3.28125 V 83.905 H 217.875 200.15625 Z"
     id="path133" />
  <path
     style="fill:#000000;stroke-width:1.3125"
     d="m 273.57591,84.81629 c -8.21656,-2.322486 -13.68819,-6.524552 -17.96147,-13.793933 -3.18369,-5.415842 -3.61256,-7.478162 -3.59869,-17.304857 0.0181,-12.808917 2.52381,-19.084577 10.37105,-25.974544 5.60357,-4.920004 11.89403,-6.820902 22.60395,-6.830636 16.66671,-0.01515 27.69646,10.222294 29.08765,26.998181 L 314.6688,55.03 h -26.55859 -26.5586 l 0.91252,4.921875 c 2.19501,11.839243 9.87446,18.012896 22.34837,17.966278 9.33748,-0.0349 15.48893,-2.869613 18.38649,-8.47287 1.65345,-3.197416 2.8548,-3.915283 6.55223,-3.915283 4.34701,0 4.47521,0.137681 3.21486,3.45267 -2.36155,6.211328 -6.41736,10.711951 -12.15729,13.490605 -7.19869,3.484824 -19.46094,4.539823 -27.23288,2.343015 z m 30.26784,-39.026077 c 0,-4.991111 -4.96506,-12.638404 -9.64851,-14.860848 -6.27783,-2.979025 -16.23626,-2.76236 -21.53536,0.468545 -4.91134,2.99448 -9.49156,9.801335 -9.49872,14.116465 -0.005,2.935695 0.11516,2.953125 20.33884,2.953125 19.60119,0 20.34375,-0.09772 20.34375,-2.677287 z"
     id="path135" />
  <path
     style="fill:#000000;stroke-width:1.3125"
     d="m 320.90625,80.62375 c 0,-2.953125 0.525,-3.28125 5.25,-3.28125 h 5.25 V 42.56125 7.78 h -5.25 c -4.375,0 -5.25,-0.4375 -5.25,-2.625 0,-2.40625 0.875,-2.625 10.5,-2.625 h 10.5 V 39.93625 77.3425 h 5.90625 c 5.425,0 5.90625,0.267361 5.90625,3.28125 V 83.905 H 337.3125 320.90625 Z"
     id="path137" />
  <path
     style="fill:#000000;stroke-width:1.3125"
     d="m 371.19642,82.666815 c -6.46308,-2.934335 -9.60267,-8.127848 -9.60267,-15.884753 0,-13.160995 8.05249,-18.37927 29.84574,-19.341 l 14.77926,-0.652205 v -5.494391 c 0,-7.910854 -4.19777,-11.519666 -14.24504,-12.246419 -8.84782,-0.639994 -15.19231,1.899548 -17.52254,7.013834 -1.19215,2.616483 -2.42492,3.218119 -6.59404,3.218119 -4.71436,0 -5.05385,-0.238088 -4.21088,-2.953125 3.00146,-9.667126 11.4406,-14.270083 26.26965,-14.328245 6.66665,-0.02615 11.19134,0.737876 15.40301,2.600901 9.20794,4.073106 10.08734,6.834738 10.08734,31.67779 V 77.3425 h 5.90625 c 5.425,0 5.90625,0.267361 5.90625,3.28125 0,3.206287 -0.22332,3.28125 -9.77516,3.28125 h -9.77516 l -0.39671,-6.748832 -0.39672,-6.74883 -3.28125,5.108205 c -1.80469,2.809514 -5.34844,6.140883 -7.875,7.403042 -6.11599,3.055282 -17.49566,2.938448 -24.52233,-0.25177 z m 24.23853,-6.621314 c 4.29225,-1.948114 6.22619,-3.882053 8.1743,-8.1743 1.40352,-3.092349 2.56482,-7.194755 2.58067,-9.11646 0.025,-3.023747 -0.63361,-3.604658 -4.89305,-4.316115 -7.92227,-1.323268 -22.47234,1.28821 -26.08456,4.681713 -5.49641,5.163608 -4.05644,14.738397 2.656,17.66049 5.67147,2.468938 10.99798,2.245975 17.56664,-0.735328 z"
     id="path139" />
  <path
     style="fill:#000000;stroke-width:1.3125"
     d="M 443.97383,81.390599 439.6875,77.563698 439.27652,53.828099 438.86555,30.0925 h -5.8234 c -5.33663,0 -5.8234,-0.274277 -5.8234,-3.28125 0,-3.013889 0.48125,-3.28125 5.90625,-3.28125 h 5.90625 v -9.701465 c 0,-9.153771 0.17836,-9.746229 3.15932,-10.4944022 1.73762,-0.4361161 4.10012,-1.1539597 5.25,-1.5952083 1.81278,-0.6956292 2.09068,0.6993281 2.09068,10.4944025 V 23.53 h 10.5 c 10.325,0 10.5,0.05469 10.5,3.28125 0,3.226562 -0.175,3.28125 -10.5,3.28125 h -10.5 v 22.109078 c 0,20.552135 0.18765,22.278904 2.66475,24.520641 4.1221,3.730451 9.45443,1.318636 11.01985,-4.984283 1.05112,-4.232147 1.72605,-4.895436 4.98135,-4.895436 3.63419,0 3.73452,0.171628 2.87702,4.921875 -0.48867,2.707031 -1.41888,5.949355 -2.06714,7.205166 -1.82614,3.537625 -8.24466,6.247959 -14.7962,6.247959 -4.71864,0 -6.83818,-0.792344 -10.23705,-3.826901 z"
     id="path141" />
  <path
     style="fill:#000000;stroke-width:1.3125"
     d="m 481.03125,80.62375 c 0,-2.953125 0.525,-3.28125 5.25,-3.28125 h 5.25 v -23.625 -23.625 h -5.25 c -4.725,0 -5.25,-0.328125 -5.25,-3.28125 0,-3.226562 0.175,-3.28125 10.5,-3.28125 h 10.5 V 50.43625 77.3425 h 5.25 c 4.725,0 5.25,0.328125 5.25,3.28125 V 83.905 h -15.75 -15.75 z"
     id="path143" />
  <path
     style="fill:#000000;stroke-width:1.3125"
     d="m 538.78125,83.124975 c -10.08788,-4.369553 -16.91487,-14.485719 -18.0103,-26.687461 -1.82694,-20.349889 11.00482,-34.695135 31.09801,-34.765968 10.68786,-0.03768 17.33147,2.20133 23.75716,8.006553 6.96597,6.293337 9.50695,13.641327 8.89664,25.727233 -0.65657,13.002067 -5.28573,20.863073 -15.39603,26.144752 -5.82038,3.040605 -8.62097,3.658635 -16.38598,3.616042 -5.36117,-0.02941 -11.32993,-0.902157 -13.9595,-2.041151 z m 24.84657,-7.046313 c 1.43508,-0.768028 4.25746,-3.557351 6.27195,-6.198495 3.35076,-4.393063 3.66273,-5.761018 3.66273,-16.060499 0,-9.783445 -0.41287,-11.837297 -3.1514,-15.676986 -3.52684,-4.944957 -11.85928,-9.290199 -17.89862,-9.333857 -5.7927,-0.04187 -15.26622,5.225813 -18.01366,10.016375 -7.36979,12.850273 -2.14876,32.479165 10.12361,38.060581 4.3473,1.977133 14.61797,1.540958 19.00539,-0.807119 z"
     id="path145" />
  <path
     style="fill:#000000;stroke-width:1.3125"
     d="m 593.90625,80.62375 c 0,-3.013889 0.48125,-3.28125 5.90625,-3.28125 h 5.90625 v -23.625 -23.625 h -5.90625 c -5.425,0 -5.90625,-0.267361 -5.90625,-3.28125 0,-3.224583 0.18003,-3.28125 10.42453,-3.28125 h 10.42454 l 0.40359,5.578125 0.40359,5.578125 2.47477,-4.087727 c 6.86657,-11.341918 27.16479,-12.61487 36.24506,-2.273018 l 3.93642,4.483334 V 55.07567 77.3425 h 5.90625 c 5.425,0 5.90625,0.267361 5.90625,3.28125 V 83.905 h -15.75 -15.75 v -3.28125 c 0,-2.875 0.56875,-3.28125 4.59375,-3.28125 h 4.59375 V 57.947039 c 0,-21.219117 -0.65053,-23.462369 -7.8895,-27.205785 -8.45265,-4.371037 -18.44698,-1.009183 -22.31123,7.50497 -2.09622,4.618628 -2.55929,8.62765 -2.58294,22.361901 l -0.0288,16.734375 h 5.25 c 4.725,0 5.25,0.328125 5.25,3.28125 V 83.905 h -15.75 -15.75 z"
     id="path147" />
  <path
     style="fill:#000000;stroke-width:1.3125"
     d="m 778.75659,83.666393 c -6.43118,-1.712617 -15.33386,-9.537037 -18.3123,-16.094396 -1.65349,-3.640332 -2.42311,-8.435293 -2.4344,-15.166997 -0.0143,-8.542792 0.50125,-10.746522 3.90109,-16.674601 2.71781,-4.73887 5.82922,-7.954544 10.15956,-10.499999 5.52048,-3.245048 7.53146,-3.66733 17.39821,-3.653402 8.86991,0.01252 12.23218,0.591552 16.40625,2.825395 9.56056,5.116534 14.50832,12.716591 15.88074,24.393798 2.89071,24.595431 -17.99134,41.529749 -42.99915,34.870202 z m 22.12522,-8.891139 c 5.34575,-3.259507 7.78325,-7.039016 9.49837,-14.727832 2.75704,-12.359723 -2.16467,-24.985949 -11.45867,-29.396239 -5.9347,-2.8162 -17.40778,-1.991399 -22.214,1.596968 -12.25235,9.147697 -11.45243,34.722194 1.32981,42.515931 5.70354,3.477629 17.15016,3.483227 22.84449,0.01116 z"
     id="path149" />
  <path
     style="fill:#000000;stroke-width:1.3125"
     d="m 830.15625,79.31125 c 0,-3.013889 0.48125,-3.28125 5.90625,-3.28125 h 5.90625 V 52.405 28.78 h -5.90625 c -5.425,0 -5.90625,-0.267361 -5.90625,-3.28125 0,-3.226562 0.175,-3.28125 10.5,-3.28125 h 10.5 v 5.25 c 0,6.227093 1.17791,6.623492 4.15131,1.397022 3.24153,-5.697782 9.5592,-8.522363 18.9499,-8.472353 9.70477,0.05168 15.92576,3.205065 19.22488,9.744979 1.89477,3.756055 2.29519,8.152838 2.29687,25.220977 l 0.002,20.671875 h 5.25 c 4.725,0 5.25,0.328125 5.25,3.28125 v 3.28125 h -15.75 -15.75 v -3.28125 c 0,-2.953125 0.525,-3.28125 5.25,-3.28125 h 5.25 V 58.181482 c 0,-20.713551 -1.39385,-25.270346 -8.80565,-28.787472 -5.23465,-2.484005 -11.9005,-1.968431 -16.89961,1.307111 -5.94876,3.897773 -7.50659,9.233298 -8.15724,27.938254 L 850.81382,76.03 h 6.07747 c 5.60762,0 6.07746,0.253667 6.07746,3.28125 V 82.5925 H 846.5625 830.15625 Z"
     id="path151" />
  <path
     style="fill:#000000;stroke-width:1.3125"
     d="M 937.20328,85.150048 C 922.58333,82.672321 912.7929,70.046572 912.90136,53.810274 913.04499,32.308885 924.10882,20.905 944.82541,20.905 c 11.25768,0 17.03273,2.033373 22.9424,8.077932 4.42761,4.528661 8.07594,14.327888 8.07594,21.691538 V 55.03 h -26.25 -26.25 l 0.0216,3.609375 c 0.0314,5.254313 5.20991,13.568164 10.30457,16.543606 5.39685,3.15193 17.46423,3.562287 23.11994,0.786203 2.15316,-1.056875 5.10629,-3.815298 6.5625,-6.129829 2.07752,-3.302061 3.56619,-4.219126 6.91327,-4.258798 4.72615,-0.05602 5.14274,1.019018 2.42159,6.248997 -5.51986,10.608987 -19.81626,15.975786 -35.48393,13.320494 z m 27.44478,-42.260673 c -1.4124,-6.66265 -6.26695,-12.108021 -12.44426,-13.958789 -10.27927,-3.079742 -21.38521,1.041206 -25.35572,9.408442 -4.24348,8.942471 -4.50544,8.815972 18.2562,8.815972 h 20.44804 z"
     id="path153" />
  <path
     style="fill:#000000;stroke-width:1.3125"
     d="m 54.140625,39.666225 c 1.624219,-0.312838 4.282031,-0.312838 5.90625,0 1.624219,0.312839 0.295313,0.568797 -2.953125,0.568797 -3.248438,0 -4.577344,-0.255958 -2.953125,-0.568797 z"
     id="path155" />
  <path
     style="fill:#000000;stroke-width:1.3125"
     d=""
     id="path157" />
  <path
     style="fill:#000000;stroke-width:0.464039"
     d="M 25.134894,85.606297 C 11.099438,82.643771 2.4350388,72.801661 0.52185892,57.647733 -1.2878209,43.313609 5.0559849,30.089451 16.364946,24.621583 22.13322,21.83263 25.57883,21.118155 33.255573,21.119171 c 7.512702,9.93e-4 11.613084,0.910238 17.148523,3.802617 4.100149,2.142408 9.209421,7.157537 11.276254,11.068469 0.828152,1.567054 1.505728,3.028776 1.505728,3.248272 0,0.219497 -2.664818,0.399084 -5.921823,0.399084 H 51.342438 L 49.955644,37.565278 C 48.098004,34.789329 44.385588,31.854604 41.071691,30.542364 37.247806,29.028178 29.385738,29.016119 25.543617,30.518547 17.110864,33.8161 12.367158,41.061345 11.801894,51.50681 c -0.572279,10.575092 3.483626,19.716061 10.548767,23.774201 5.873339,3.37359 14.633163,3.516087 20.847699,0.339138 2.756392,-1.4091 6.627334,-5.138738 7.980175,-7.688864 l 1.101038,-2.075478 h 5.716541 c 6.623598,0 6.369286,-0.384222 3.455326,5.220339 -3.160684,6.079113 -9.57449,11.209331 -17.058935,13.644964 -3.08517,1.003995 -4.77061,1.234585 -9.976835,1.364961 -4.112921,0.102998 -7.300481,-0.06179 -9.280776,-0.479774 z"
     id="path159" />
  <path
     style="fill:#000000;stroke-width:0.464039"
     d=""
     id="path161" />
  <path
     style="fill:#000000;stroke-width:0.464039"
     d="m 3.7891078,169.11231 v -18.43855 l 6.8445732,0.18776 c 6.994124,0.19186 8.591023,0.58899 11.271822,2.80318 2.951514,2.43779 5.013247,7.53908 5.40744,13.37947 0.495974,7.34838 -1.363242,13.6028 -5.02777,16.91348 -3.007989,2.71754 -4.478998,3.1356 -11.883512,3.37734 l -6.6125532,0.21588 z m 13.3939112,11.87014 c 0.768915,-0.54752 1.979606,-2.18419 2.690423,-3.63705 1.085345,-2.21836 1.322092,-3.38093 1.477763,-7.25668 0.25271,-6.29176 -0.406726,-8.98219 -2.867859,-11.7006 -1.912248,-2.11214 -2.013465,-2.1578 -5.305586,-2.39335 l -3.3561474,-0.24013 v 13.35099 13.35099 l 2.9816884,-0.23935 c 2.009117,-0.16127 3.4377,-0.56405 4.379718,-1.23482 z"
     id="path163" />
  <path
     style="fill:#000000;stroke-width:0.464039"
     d="m 36.924409,186.62191 c 0.138097,-0.44664 2.045688,-7.91186 4.23909,-16.58939 2.193402,-8.67752 4.190708,-16.56038 4.438459,-17.51746 l 0.450455,-1.74015 3.810434,0.004 3.810435,0.004 4.439013,18.21001 4.439013,18.21002 -2.985774,0.13846 c -1.642176,0.0762 -3.064176,0.0601 -3.160001,-0.0358 -0.09582,-0.0958 -0.533021,-1.88088 -0.971545,-3.96678 l -0.797317,-3.79256 h -5.165568 -5.165567 l -0.827741,3.94433 -0.827742,3.94433 h -2.988365 c -2.632354,0 -2.958452,-0.0967 -2.737279,-0.81207 z m 16.516853,-11.93814 c 0,-0.69187 -3.093247,-15.99398 -3.550336,-17.56329 -0.135693,-0.46588 -0.316116,-0.77764 -0.40094,-0.69282 -0.140473,0.14048 -4.401423,18.28661 -4.401423,18.74437 0,0.10832 1.879358,0.19694 4.17635,0.19694 3.373526,0 4.176349,-0.13172 4.176349,-0.6852 z"
     id="path165" />
  <path
     style="fill:#000000;stroke-width:0.464039"
     d="m 76.643203,171.65666 v -15.77732 h -3.480291 -3.480291 v -2.55221 -2.55222 h 9.744815 9.744816 v 2.55222 2.55221 H 85.92398 82.675708 v 15.77732 15.77732 h -3.016252 -3.016253 z"
     id="path167" />
  <path
     style="fill:#000000;stroke-width:0.464039"
     d="m 97.268692,186.1811 c 0.16045,-0.71463 2.215308,-8.92117 4.566348,-18.23675 l 4.27463,-16.93742 3.80548,-0.13441 3.80548,-0.1344 0.47084,1.75854 c 1.01749,3.8002 8.39158,34.14036 8.39158,34.52656 0,0.22592 -1.3475,0.41076 -2.99444,0.41076 h -2.99444 l -0.48327,-1.74015 c -0.26579,-0.95708 -0.48559,-1.94896 -0.48844,-2.20418 -0.003,-0.25522 -0.22264,-1.24711 -0.48843,-2.20419 l -0.48327,-1.74014 h -5.04778 -5.04779 l -0.8597,3.82832 -0.8597,3.82832 -2.929412,0.13924 -2.929412,0.13924 z m 16.497618,-10.96094 c 0,-0.57537 -3.74941,-18.60452 -3.90048,-18.75559 -0.10512,-0.10512 -0.30783,0.19003 -0.45046,0.65591 -0.53049,1.73267 -4.00176,17.0185 -4.00176,17.62183 0,0.47977 0.97895,0.62666 4.17635,0.62666 2.29699,0 4.17635,-0.067 4.17635,-0.14881 z"
     id="path169" />
  <path
     style="fill:#000000;stroke-width:0.464039"
     d="m 156.32679,187.87282 c -2.1905,-0.53739 -4.42939,-1.65444 -5.76793,-2.87779 l -1.02662,-0.93828 1.45631,-2.02787 c 1.45244,-2.02249 1.45886,-2.02548 2.41873,-1.12653 2.87682,2.69423 8.384,2.47777 9.49364,-0.37314 1.63723,-4.20641 0.19965,-6.92446 -5.06445,-9.57542 -5.11889,-2.57783 -7.38538,-6.41479 -6.67509,-11.30027 0.56155,-3.86244 2.58478,-6.75039 5.99256,-8.55374 3.17054,-1.67781 8.51945,-1.10649 11.48496,1.2267 1.10394,0.86856 1.03378,1.18633 -0.71942,3.2584 l -1.51769,1.79372 -1.78844,-1.21367 c -3.31121,-2.24705 -7.19847,-1.05536 -8.15591,2.50029 -0.90647,3.36636 0.20375,5.02926 5.33689,7.99368 4.22768,2.44152 5.26479,3.4007 6.40736,5.92584 1.06526,2.35431 1.229,6.76002 0.33621,9.0467 -1.87735,4.80838 -7.12309,7.48959 -12.21111,6.24138 z"
     id="path171" />
  <path
     style="fill:#000000;stroke-width:0.464039"
     d=""
     id="path173" />
  <path
     style="fill:#000000;stroke-width:0.464039"
     d="m 191.28015,187.59374 c -2.82511,-0.98869 -4.79908,-2.58876 -6.5393,-5.30066 -3.04113,-4.73918 -4.19656,-11.5203 -3.05548,-17.93233 1.2344,-6.93646 3.9084,-11.16911 8.4643,-13.3981 2.14958,-1.05169 2.9494,-1.20426 5.22946,-0.99751 2.95419,0.26788 5.18594,1.21479 7.11475,3.01872 l 1.25625,1.17492 -1.45392,2.02455 c -1.4403,2.00557 -1.46294,2.01635 -2.41635,1.15029 -2.42643,-2.20416 -5.26641,-2.52668 -7.69801,-0.87423 -5.4156,3.6803 -6.2032,18.57285 -1.29666,24.51826 1.0198,1.23572 2.53345,1.81594 4.73732,1.81594 1.67717,0 2.42518,-0.28329 3.69736,-1.40028 l 1.59483,-1.40027 1.52445,1.92478 1.52446,1.92478 -1.8843,1.75766 c -2.92356,2.72707 -6.70721,3.42552 -10.79916,1.99348 z"
     id="path175" />
  <path
     style="fill:#000000;stroke-width:0.464039"
     d="m 216.78293,169.10445 v -18.32954 h 3.01625 3.01625 v 18.32954 18.32953 h -3.01625 -3.01625 z"
     id="path177" />
  <path
     style="fill:#000000;stroke-width:0.464039"
     d="m 238.59275,168.87243 v -18.09752 h 8.12068 8.12068 v 2.55222 2.55221 h -5.33644 -5.33645 v 5.10443 5.10442 h 4.87241 4.8724 v 2.3202 2.32019 h -4.8724 -4.87241 v 5.56847 5.56846 h 5.56847 5.56846 v 2.55222 2.55221 h -8.3527 -8.3527 z"
     id="path179" />
  <path
     style="fill:#000000;stroke-width:0.464039"
     d=""
     id="path181" />
  <path
     style="fill:#000000;stroke-width:0.464039"
     d="m 269.21932,169.08412 v -18.34987 l 3.30873,0.13634 3.30873,0.13634 5.0804,12.87708 c 2.79421,7.08239 5.27282,12.87708 5.508,12.87708 0.25061,0 0.42761,-5.37834 0.42761,-12.99309 v -12.99309 h 2.55221 2.55222 v 18.34987 18.34986 l -3.28446,-0.13634 -3.28445,-0.13634 -5.20894,-12.8631 c -2.86492,-7.0747 -5.35445,-13.0086 -5.53229,-13.18643 -0.17783,-0.17784 -0.32334,5.66276 -0.32334,12.9791 v 13.30245 h -2.55221 -2.55221 z"
     id="path183" />
  <path
     style="fill:#000000;stroke-width:0.464039"
     d="m 315.64255,187.59374 c -5.59598,-1.9584 -9.16418,-7.74815 -9.96492,-16.1691 -0.59305,-6.23674 1.66455,-14.30525 4.98227,-17.80631 4.27787,-4.51426 11.70783,-4.95919 15.98591,-0.95729 l 1.50982,1.41235 -1.45935,1.81598 -1.45936,1.81597 -1.33989,-0.95408 c -3.20002,-2.27862 -6.72177,-2.06692 -8.91172,0.53569 -0.62276,0.74011 -1.59417,2.73359 -2.15868,4.42994 -0.89,2.67445 -0.99914,3.80182 -0.82135,8.48419 0.17671,4.65393 0.37033,5.72044 1.40151,7.7201 0.65805,1.27611 1.68697,2.77313 2.28649,3.32671 2.17004,2.00379 5.78097,1.80269 8.21261,-0.45737 l 1.0901,-1.01318 1.57813,1.81746 c 0.86797,0.9996 1.57813,1.96718 1.57813,2.15019 0,0.183 -0.82049,1.07399 -1.82331,1.97998 -2.89747,2.61768 -6.66421,3.27639 -10.68639,1.86877 z"
     id="path185" />
  <path
     style="fill:#000000;stroke-width:0.464039"
     d="m 341.40177,168.87243 v -18.09752 h 8.12068 8.12068 v 2.55222 2.55221 h -5.33645 -5.33645 v 5.10443 5.10442 h 4.87241 4.87241 v 2.3202 2.32019 h -4.87241 -4.87241 v 5.56847 5.56846 h 5.56847 5.56847 v 2.55222 2.55221 h -8.3527 -8.3527 z"
     id="path187" />
  <path
     style="fill:#000000;stroke-width:0.464039"
     d="m 390.12585,169.10445 v -18.32954 h 7.88866 7.88866 v 2.55222 2.55221 h -5.10443 -5.10443 v 5.33645 5.33644 h 4.87241 4.87241 v 2.55222 2.55221 h -4.87241 -4.87241 v 7.88866 7.88866 h -2.78423 -2.78423 z"
     id="path189" />
  <path
     style="fill:#000000;stroke-width:0.464039"
     d="m 426.002,186.97285 c -5.21835,-2.99284 -7.70892,-8.83078 -7.72196,-18.10042 -0.0159,-11.27012 4.72262,-18.34024 12.68122,-18.92127 3.39668,-0.24798 6.93326,1.5423 9.34174,4.72896 4.25681,5.63219 5.28276,16.9096 2.2707,24.96005 -2.80305,7.49181 -10.41866,10.86159 -16.5717,7.33268 z m 9.03393,-6.3283 c 2.0884,-2.40197 2.99729,-5.8594 3.02599,-11.51096 0.0385,-7.5731 -1.89355,-12.20573 -5.50635,-13.20327 -5.24505,-1.44823 -8.57901,3.76111 -8.58652,13.4165 -0.007,8.83542 2.8746,13.8048 7.68827,13.25917 1.4283,-0.16189 2.20709,-0.61402 3.37861,-1.96144 z"
     id="path191" />
  <path
     style="fill:#000000;stroke-width:0.464039"
     d="m 464.08684,161.4478 c 0,-3.19026 0.0741,-4.49537 0.16475,-2.90024 0.0906,1.59514 0.0906,4.20535 0,5.80049 -0.0906,1.59513 -0.16475,0.29002 -0.16475,-2.90025 z"
     id="path193" />
  <path
     style="fill:#000000;stroke-width:0.464039"
     d="m 458.33955,169.05582 v -18.37815 l 7.30861,0.17066 c 8.37598,0.19559 9.41938,0.55454 11.72711,4.03427 1.9956,3.00909 2.35519,7.89656 0.80736,10.97357 -0.71913,1.42962 -2.79288,3.52983 -3.91718,3.96717 -0.99625,0.38753 -0.96298,0.52056 2.20419,8.81333 1.76863,4.63093 3.2157,8.50479 3.2157,8.60859 0,0.10379 -1.33757,0.18872 -2.97237,0.18872 h -2.97236 l -1.43601,-3.94433 -2.872,-7.88866 -1.436,-3.94433 h -2.04429 -2.04429 v 7.88866 7.88866 h -2.78423 -2.78424 z m 11.81708,-2.23501 c 2.7682,-1.15663 3.87163,-5.08785 2.33624,-8.32343 -0.96018,-2.02344 -2.24854,-2.70053 -5.65956,-2.97433 l -2.92529,-0.23481 v 6.09603 6.09604 h 2.3351 c 1.2843,0 3.04538,-0.29678 3.91351,-0.6595 z"
     id="path195" />
  <path
     style="fill:#000000;stroke-width:0.464039"
     d=""
     id="path197" />
  <path
     style="fill:#000000;stroke-width:0.464039"
     d="m 506.60251,187.34011 c 0.002,-0.076 2.05506,-8.28203 4.56323,-18.23566 l 4.56031,-18.09752 h 3.88266 3.88266 l 4.47223,18.21353 4.47222,18.21352 h -3.16446 c -2.90013,0 -3.1848,-0.0872 -3.40802,-1.04409 -0.13396,-0.57425 -0.51951,-2.29699 -0.85679,-3.82832 l -0.61323,-2.78423 -5.1291,-0.13069 -5.12911,-0.13069 -0.87047,3.843 -0.87048,3.843 -2.89728,0.13815 c -1.59351,0.076 -2.89597,0.076 -2.89437,0 z m 16.70248,-12.40842 c 0,-0.76001 -3.72982,-18.29646 -3.93513,-18.50177 -0.10783,-0.10783 -0.31151,0.29843 -0.45263,0.90279 -0.14111,0.60436 -1.08872,4.64874 -2.1058,8.9875 -1.01707,4.33877 -1.85145,8.14968 -1.85418,8.46871 -0.004,0.42144 1.13702,0.58005 4.17139,0.58005 2.30448,0 4.17635,-0.19599 4.17635,-0.43728 z"
     id="path199" />
  <path
     style="fill:#000000;stroke-width:0.464039"
     d="m 544.65077,169.10445 v -18.32954 h 2.78424 2.78423 v 15.5453 15.5453 h 5.10443 5.10442 v 2.78424 2.78423 h -7.88866 -7.88866 z"
     id="path201" />
  <path
     style="fill:#000000;stroke-width:0.464039"
     d="m 572.4931,169.10445 v -18.32954 h 3.01626 3.01625 v 15.5453 15.5453 h 5.10443 5.10442 v 2.78424 2.78423 h -8.12068 -8.12068 z"
     id="path203" />
  <path
     style="fill:#000000;stroke-width:0.464039"
     d="m 601.11181,166.28271 v -8.12068 h -1.62414 c -1.31477,0 -1.62413,-0.17677 -1.62413,-0.92807 0,-0.86621 0.30936,-0.92808 4.64039,-0.92808 4.33102,0 4.64038,0.0619 4.64038,0.92808 0,0.7513 -0.30936,0.92807 -1.62413,0.92807 h -1.62414 v 8.12068 8.12068 h -1.39211 -1.39212 z"
     id="path205" />
  <path
     style="fill:#000000;stroke-width:0.464039"
     d="m 613.64086,165.35464 v -9.04876 h 1.83827 c 2.08391,0 1.67464,-0.86865 4.00358,8.49712 0.68613,2.75926 1.41423,4.84743 1.618,4.64039 0.20376,-0.20704 1.07423,-3.19548 1.93437,-6.64097 l 1.56388,-6.26452 2.17759,-0.14144 2.17759,-0.14143 v 9.07418 9.07418 h -1.39212 -1.39211 v -7.28541 c 0,-4.0378 -0.17588,-7.0889 -0.39455,-6.84457 -0.21701,0.24246 -1.18899,3.5209 -2.15996,7.28541 -1.60925,6.2391 -1.85683,6.84457 -2.79876,6.84457 -0.94564,0 -1.19183,-0.62026 -2.90081,-7.30861 l -1.86747,-7.30861 -0.0436,7.30861 -0.0437,7.30861 h -1.1601 -1.16009 z"
     id="path207" />
  <path
     style="fill:#000000;stroke-width:1.3125"
     d="m 730.31243,36.444555 c -5.16311,-3.447503 -4.26804,-11.46039 1.44021,-12.89307 6.80535,-1.708033 11.35992,6.996846 6.13496,11.725371 -2.56324,2.3197 -5.23345,2.731307 -7.57517,1.167699 z"
     id="path142" />
  <path
     style="fill:#000000;stroke-width:1.3125"
     d="m 709.49193,57.189415 c -4.72163,-5.217345 1.06695,-13.031945 7.82714,-10.566662 1.44375,0.526502 3.17569,2.498978 3.84877,4.383281 2.46011,6.887243 -6.66537,11.71996 -11.67591,6.183381 z"
     id="path144" />
  <path
     style="fill:#000000;stroke-width:1.3125"
     d="m 689.80443,80.814415 c -2.89297,-3.196694 -1.83791,-8.541239 2.10241,-10.650033 6.46038,-3.457493 13.22063,5.214867 8.30187,10.650033 -2.97534,3.287708 -7.42894,3.287708 -10.40428,0 z"
     id="path146" />
</svg>
